<?xml version="1.0" encoding="UTF-8"?>
<!DOCTYPE svg PUBLIC "-//W3C//DTD SVG 1.1//EN" "http://www.w3.org/Graphics/SVG/1.1/DTD/svg11.dtd">
<!-- Creator: CorelDRAW 2018 (64-Bit) -->
<svg xmlns="http://www.w3.org/2000/svg" xml:space="preserve" width="4.58026in" height="4.58026in" version="1.1" style="shape-rendering:geometricPrecision; text-rendering:geometricPrecision; image-rendering:optimizeQuality; fill-rule:evenodd; clip-rule:evenodd"
viewBox="0 0 480216 480216"
 xmlns:xlink="http://www.w3.org/1999/xlink">
 <defs>
  <style type="text/css">
   <![CDATA[
    .fil0 {fill:#1674C7}
   ]]>
  </style>
 </defs>
 <g id="Layer_x0020_1">
  <metadata id="CorelCorpID_0Corel-Layer"/>
  <path class="fil0" d="M240108 0c132439,0 240108,107669 240108,240108 0,132438 -107669,240108 -240108,240108 -132438,0 -240108,-107669 -240108,-240108 0,-132439 107670,-240108 240108,-240108zm-134461 253756l87450 87450c3538,3538 8593,5560 13648,5560 5055,0 9604,-2022 13648,-5560 7582,-7582 7582,-19714 0,-26791l-55098 -55098 195625 0c10615,0 19208,-8593 19208,-19208 0,-10615 -8594,-19209 -19208,-19209l-195625 0 55098 -55098c7582,-7582 7582,-19714 0,-26791 -7582,-7582 -19714,-7582 -26791,0l-87956 87450c-3538,3538 -5560,8593 -5560,13648 0,5055 2022,10110 5560,13648z"/>
 </g>
</svg>
