<?xml version="1.0" encoding="UTF-8"?>
<!DOCTYPE svg PUBLIC "-//W3C//DTD SVG 1.1//EN" "http://www.w3.org/Graphics/SVG/1.1/DTD/svg11.dtd">
<!-- Creator: CorelDRAW 2018 (64-Bit) -->
<svg xmlns="http://www.w3.org/2000/svg" xml:space="preserve" width="4.4615in" height="0.753071in" version="1.1" style="shape-rendering:geometricPrecision; text-rendering:geometricPrecision; image-rendering:optimizeQuality; fill-rule:evenodd; clip-rule:evenodd"
viewBox="0 0 4208.15 710.31"
 xmlns:xlink="http://www.w3.org/1999/xlink">
 <defs>
  <style type="text/css">
   <![CDATA[
    .fil4 {fill:black}
    .fil0 {fill:#0069C4}
    .fil3 {fill:#FFCC29}
    .fil5 {fill:black;fill-rule:nonzero}
    .fil1 {fill:#00AFEF;fill-rule:nonzero}
    .fil2 {fill:#91D8F7;fill-rule:nonzero}
   ]]>
  </style>
 </defs>
 <g id="Layer_x0020_1">
  <metadata id="CorelCorpID_0Corel-Layer"/>
  <g id="_1855188952944">
   <g>
    <path class="fil0" d="M335.91 0.95l-97.86 328.92c28.44,24.1 58.39,47.05 89.05,68.57l65.72 -233.17 66.53 236.57c14.95,-10.36 29.59,-20.93 43.84,-31.64 16.47,-12.37 33.41,-25.63 50.25,-39.62l-102.28 -330.58 -115.26 0.95zm167.51 502.58c38.48,18.91 78.75,35.72 118.11,47.09l-33.5 -108.26c-6.53,5.07 -13.04,10.04 -19.5,14.89 -21.02,15.79 -42.78,31.27 -65.12,46.27zm-299.01 -60.62l-31.38 105.47c21.02,-6.36 41.81,-14.17 61.54,-22.23 17.49,-7.14 34.95,-14.92 52.32,-23.23 -28.07,-18.95 -55.72,-39 -82.47,-60.01zm-66.74 224.32l-11.77 39.56 114.28 0 20.88 -74.06c-35.2,13.64 -79.84,28.2 -123.39,34.51zm386.38 -35.34l22.05 78.42 124.83 0 -12.52 -40.45c-14.47,-1.9 -28.72,-4.75 -42.19,-8 -30.52,-7.36 -61.51,-17.7 -92.18,-29.97z"/>
    <path class="fil1" d="M669.25 373.81c1.75,1.72 3.48,3.45 5.2,5.16 71.36,71.52 115.5,140.65 115.5,190.47 0,10.22 -1.7,19.63 -4.98,28.2 -10.09,26.34 -32.8,41.81 -65.58,46.98 -25.82,4.07 -58.83,1.32 -97.08,-7.91 -64.48,-15.55 -146.43,-50.04 -235.44,-101.67l-5.7 -3.32 -0.06 -0.03 -0.01 -0.01c-103.12,-60.47 -196.58,-132.69 -264.32,-200.58 -71.36,-71.51 -115.5,-140.66 -115.5,-190.47 0,-10.23 1.7,-19.63 4.98,-28.2 10.09,-26.34 32.8,-41.81 65.58,-46.98 25.82,-4.07 58.82,-1.32 97.08,7.91 31.96,7.71 68.21,20.07 107.49,36.87l-16.39 55.11c-38.52,-16.8 -73.81,-29.02 -104.54,-36.43 -31.02,-7.48 -56.5,-9.91 -74.91,-7.01 -11.44,1.8 -18.69,5.43 -20.79,10.92 -0.77,2.02 -1.17,4.62 -1.17,7.82 0,34.16 37.72,89.04 98.71,150.15 55.98,56.1 130.56,115.41 213.77,167.94l-0.65 0.4 39.59 23.3 0.04 0.02c18,10.59 36.27,20.76 54.76,30.48l13.48 7.09 0.22 -0.14c59.24,29.97 112.96,50.63 157.23,61.3 31.02,7.48 56.51,9.91 74.91,7.01 11.44,-1.8 18.69,-5.43 20.79,-10.92 0.77,-2.02 1.17,-4.62 1.17,-7.82 0,-34.16 -37.72,-89.04 -98.71,-150.16 -2.54,-2.54 -5.11,-5.09 -7.72,-7.64 14.55,-12.17 28.99,-24.81 43.06,-37.84z"/>
    <path class="fil2" d="M553 436.58c-25.01,18.78 -50.53,36.65 -76.15,53.44 -18.61,-9.78 -36.63,-19.88 -53.7,-29.9l-2.85 -1.67c33.03,-20.66 66.14,-43.3 98.44,-67.56 79.88,-59.99 141.11,-119.6 178.14,-170.06 1.98,-2.7 3.89,-5.37 5.72,-8 16.08,10.52 35.3,16.64 55.96,16.64l1.56 -0.02c-5.11,8.21 -10.81,16.63 -17.1,25.2 -40.05,54.58 -105.39,118.38 -190.01,181.94zm103.17 -310.88c-30.8,5.64 -68.1,17.42 -109.32,34.26 -5.58,2.28 -11.21,4.65 -16.91,7.11l-16.96 -54.81c4.15,-1.77 8.27,-3.49 12.37,-5.16 56.54,-23.11 108.44,-37.38 150.77,-40.8 -12.3,16.65 -19.67,37.17 -19.96,59.39zm-287.58 428.64c-35.42,18.9 -70.01,35.26 -102.73,48.63 -93.51,38.22 -174.29,52.26 -220.18,33.05 -9.49,-3.97 -17.53,-9.17 -24.16,-15.5 -20.41,-19.5 -25.95,-46.35 -18.09,-78.45 6.25,-25.51 21.52,-54.94 44.78,-86.64 19.07,-25.99 43.88,-54.07 73.77,-83.22 13.8,12.99 28.05,25.73 42.66,38.19 -28.7,27.77 -52.34,54.39 -70.29,78.85 -18.9,25.76 -30.98,48.29 -35.37,66.26 -2.79,11.39 -2.27,19.53 1.96,23.58 1.57,1.5 3.8,2.87 6.69,4.08 31.57,13.21 96.8,-0.39 176.73,-33.06 21.72,-8.88 44.33,-19.15 67.5,-30.7 18.66,12.06 37.45,23.61 56.22,34.62l0.52 0.3z"/>
    <path class="fil3" d="M758.55 50.55c42.26,0 76.52,34.26 76.52,76.52 0,42.26 -34.26,76.52 -76.52,76.52 -42.26,0 -76.52,-34.26 -76.52,-76.52 0,-42.26 34.26,-76.52 76.52,-76.52z"/>
    <path class="fil4" d="M758.55 75.65c-28.35,0 -51.42,23.06 -51.42,51.42 0,28.35 23.06,51.42 51.42,51.42 28.35,0 51.42,-23.07 51.42,-51.42 0,-28.35 -23.06,-51.42 -51.42,-51.42zm0 95.49c-24.3,0 -44.07,-19.77 -44.07,-44.07 0,-24.3 19.77,-44.07 44.07,-44.07 24.3,0 44.07,19.77 44.07,44.07 0,24.3 -19.77,44.07 -44.07,44.07zm29.38 -44.07c0,2.03 -1.65,3.67 -3.67,3.67l-19.38 0c-1.28,2.18 -3.62,3.67 -6.32,3.67 -4.05,0 -7.35,-3.3 -7.35,-7.35 0,-2.71 1.49,-5.05 3.67,-6.32l0 -23.06c0,-2.03 1.65,-3.67 3.67,-3.67 2.03,0 3.67,1.65 3.67,3.67l0 23.06c1.1,0.64 2.01,1.55 2.65,2.65l19.38 0c2.03,0 3.67,1.64 3.67,3.67z"/>
   </g>
   <path class="fil5" d="M1371.65 557.68l94.11 0 -145.36 -382 -106.27 0 -145.78 382 94.01 0 24.31 -69.8 161.08 0 23.9 69.8zm-157.94 -147.35l53.55 -153.85 53.56 153.85 -107.11 0zm344.27 -86.25l70.22 0 0 -61.73 -70.22 0 0 -75.77 -81.01 0 0 75.77 -44.54 0 0 61.73 44.54 0 0 115.07c0,73.15 14.36,118.43 103.02,118.43 18.97,0 31.55,-1.57 48.21,-4.4l0 -74.72c-53.13,8.17 -70.22,0.52 -70.22,-39.3l0 -115.07zm238.22 -69.9c-70.22,0 -148.08,40.97 -148.08,153.32 0,112.45 77.87,153.32 148.08,153.32 70.22,0 147.98,-40.87 147.98,-153.32 0,-112.35 -77.76,-153.32 -147.98,-153.32zm0 239.57c-49.57,0 -71.58,-38.78 -71.58,-86.25 0,-47.48 22.01,-86.15 71.58,-86.15 49.47,0 71.06,38.67 71.06,86.15 0,47.47 -21.59,86.25 -71.06,86.25zm506.93 -239.57c-46.74,0 -79.23,39.82 -85.52,51.88 -14.36,-32.8 -44.02,-51.88 -85.94,-51.88 -40.98,0 -66.55,31.13 -75.56,48l0 -39.82 -81.01 0 0 290.82 81.01 0 0 -170.72c0,-40.98 21.17,-56.8 46.32,-56.8 24.74,0 44.12,14.25 44.12,56.8l0 170.72 81.01 0 0 -170.72c0,-40.98 21.59,-56.8 46.32,-56.8 24.73,0 44.12,14.25 44.12,56.8l0 170.72 81.43 0 0 -192.62c0,-65.4 -34.58,-106.37 -96.31,-106.37l0 0zm177.22 -20.75c24.84,0 41.92,-15.3 41.92,-42.03 0,-26.62 -17.08,-41.92 -41.92,-41.92 -24.73,0 -41.81,15.3 -41.81,41.92 0,26.72 17.08,42.03 41.81,42.03l0 0zm-40.45 319.85l81.01 0 0 -290.93 -81.01 0 0 290.93zm260.95 -59.53c-49.47,0 -71.58,-38.78 -71.58,-86.25 0,-47.48 22.11,-86.15 71.58,-86.15 39.62,0 61.62,25.05 68.44,59.95l73.78 0c-12.57,-90.55 -78.29,-127.12 -142.21,-127.12 -70.22,0 -148.5,40.97 -148.5,153.32 0,112.45 78.29,153.32 148.5,153.32 63.93,0 129.64,-35.95 142.21,-126.6l-73.78 0c-6.81,34.38 -28.82,59.53 -68.44,59.53l0 0zm629.75 -240.52l0 -77.56 -328.03 0 0 77.56 119.26 0 0 304.45 89.5 0 0 -304.45 119.26 0zm57.74 -19.81c24.84,0 41.92,-15.3 41.92,-42.03 0,-26.62 -17.08,-41.92 -41.92,-41.92 -24.73,0 -41.81,15.3 -41.81,41.92 0,26.72 17.08,42.03 41.81,42.03l0 0zm-40.45 319.85l81.01 0 0 -290.93 -81.01 0 0 290.93zm452.43 -299.1c-46.74,0 -79.23,39.82 -85.52,51.88 -14.36,-32.8 -44.02,-51.88 -85.94,-51.88 -40.98,0 -66.55,31.13 -75.56,48l0 -39.82 -81.01 0 0 290.82 81.01 0 0 -170.72c0,-40.98 21.17,-56.8 46.32,-56.8 24.74,0 44.12,14.25 44.12,56.8l0 170.72 81.01 0 0 -170.72c0,-40.98 21.59,-56.8 46.32,-56.8 24.73,0 44.12,14.25 44.12,56.8l0 170.72 81.43 0 0 -192.62c0,-65.4 -34.58,-106.37 -96.31,-106.37l0 0zm198.91 175.12l208.45 0c7.13,-125.45 -68.44,-175.12 -138.65,-175.12 -68.85,0 -144,43.7 -144,153.32 0,109.72 75.14,153.32 144,153.32 60.79,0 119.68,-28.93 134.98,-106.38l-72 0c-9.85,22.95 -27.88,39.3 -62.99,39.3 -41.4,0 -63.51,-27.25 -69.8,-64.35l0 -0.1zm69.8 -107.95c36.47,0 55.34,20.75 62.99,51.25l-129.64 0c9.01,-29.97 30.6,-51.25 66.65,-51.25l0 0z"/>
  </g>
 </g>
</svg>
