<?xml version="1.0" encoding="UTF-8"?>
<!DOCTYPE svg PUBLIC "-//W3C//DTD SVG 1.1//EN" "http://www.w3.org/Graphics/SVG/1.1/DTD/svg11.dtd">
<!-- Creator: CorelDRAW 2018 (64-Bit) -->
<svg xmlns="http://www.w3.org/2000/svg" xml:space="preserve" width="0.885343in" height="0.753071in" version="1.1" style="shape-rendering:geometricPrecision; text-rendering:geometricPrecision; image-rendering:optimizeQuality; fill-rule:evenodd; clip-rule:evenodd"
viewBox="0 0 160.65 136.65"
 xmlns:xlink="http://www.w3.org/1999/xlink">
 <defs>
  <style type="text/css">
   <![CDATA[
    .fil0 {fill:#FEFEFE}
    .fil4 {fill:black}
    .fil3 {fill:#FFCC29}
    .fil1 {fill:#00AFEF;fill-rule:nonzero}
    .fil2 {fill:#91D8F7;fill-rule:nonzero}
   ]]>
  </style>
 </defs>
 <g id="Layer_x0020_1">
  <metadata id="CorelCorpID_0Corel-Layer"/>
  <g id="_2159897471296">
   <path class="fil0" d="M64.62 0.18l-18.83 63.28c5.47,4.64 11.23,9.05 17.13,13.19l12.64 -44.86 12.8 45.51c2.88,-1.99 5.69,-4.03 8.43,-6.09 3.17,-2.38 6.43,-4.93 9.67,-7.62l-19.68 -63.6 -22.17 0.18zm32.23 96.69c7.4,3.64 15.15,6.87 22.72,9.06l-6.44 -20.83c-1.26,0.98 -2.51,1.93 -3.75,2.87 -4.04,3.04 -8.23,6.02 -12.53,8.9zm-57.52 -11.66l-6.04 20.29c4.04,-1.22 8.04,-2.73 11.84,-4.28 3.36,-1.37 6.72,-2.87 10.06,-4.47 -5.4,-3.64 -10.72,-7.5 -15.87,-11.54zm-12.84 43.16l-2.26 7.61 21.99 0 4.02 -14.25c-6.77,2.62 -15.36,5.43 -23.74,6.64zm74.33 -6.8l4.24 15.09 24.02 0 -2.41 -7.78c-2.78,-0.37 -5.53,-0.91 -8.12,-1.54 -5.87,-1.42 -11.83,-3.41 -17.73,-5.77z"/>
   <path class="fil1" d="M128.75 71.92c0.34,0.33 0.67,0.66 1,0.99 13.73,13.76 22.22,27.06 22.22,36.64 0,1.97 -0.33,3.78 -0.96,5.42 -1.94,5.07 -6.31,8.04 -12.62,9.04 -4.97,0.78 -11.32,0.25 -18.68,-1.52 -12.4,-2.99 -28.17,-9.63 -45.29,-19.56l-1.1 -0.64 -0.01 -0.01 -0 -0c-19.84,-11.63 -37.82,-25.53 -50.85,-38.59 -13.73,-13.76 -22.22,-27.06 -22.22,-36.64 0,-1.97 0.33,-3.78 0.96,-5.43 1.94,-5.07 6.31,-8.04 12.62,-9.04 4.97,-0.78 11.32,-0.25 18.68,1.52 6.15,1.48 13.12,3.86 20.68,7.09l-3.15 10.6c-7.41,-3.23 -14.2,-5.58 -20.11,-7.01 -5.97,-1.44 -10.87,-1.91 -14.41,-1.35 -2.2,0.35 -3.59,1.04 -4,2.1 -0.15,0.39 -0.23,0.89 -0.23,1.5 0,6.57 7.26,17.13 18.99,28.89 10.77,10.79 25.12,22.2 41.13,32.31l-0.13 0.08 7.62 4.48 0.01 0c3.46,2.04 6.98,3.99 10.53,5.86l2.59 1.36 0.04 -0.03c11.4,5.77 21.73,9.74 30.25,11.79 5.97,1.44 10.87,1.91 14.41,1.35 2.2,-0.35 3.59,-1.04 4,-2.1 0.15,-0.39 0.23,-0.89 0.23,-1.5 0,-6.57 -7.26,-17.13 -18.99,-28.89 -0.49,-0.49 -0.98,-0.98 -1.49,-1.47 2.8,-2.34 5.58,-4.77 8.28,-7.28z"/>
   <path class="fil2" d="M106.39 83.99c-4.81,3.61 -9.72,7.05 -14.65,10.28 -3.58,-1.88 -7.05,-3.82 -10.33,-5.75l-0.55 -0.32c6.35,-3.97 12.72,-8.33 18.94,-13 15.37,-11.54 27.15,-23.01 34.27,-32.72 0.38,-0.52 0.75,-1.03 1.1,-1.54 3.09,2.02 6.79,3.2 10.77,3.2l0.3 -0c-0.98,1.58 -2.08,3.2 -3.29,4.85 -7.7,10.5 -20.28,22.78 -36.56,35zm19.85 -59.81c-5.93,1.09 -13.1,3.35 -21.03,6.59 -1.07,0.44 -2.16,0.9 -3.25,1.37l-3.26 -10.54c0.8,-0.34 1.59,-0.67 2.38,-0.99 10.88,-4.45 20.86,-7.19 29.01,-7.85 -2.37,3.2 -3.78,7.15 -3.84,11.43zm-55.33 82.46c-6.81,3.64 -13.47,6.78 -19.76,9.36 -17.99,7.35 -33.53,10.05 -42.36,6.36 -1.83,-0.76 -3.37,-1.76 -4.65,-2.98 -3.93,-3.75 -4.99,-8.92 -3.48,-15.09 1.2,-4.91 4.14,-10.57 8.62,-16.67 3.67,-5 8.44,-10.4 14.19,-16.01 2.65,2.5 5.4,4.95 8.21,7.35 -5.52,5.34 -10.07,10.46 -13.52,15.17 -3.64,4.96 -5.96,9.29 -6.81,12.75 -0.54,2.19 -0.44,3.76 0.38,4.54 0.3,0.29 0.73,0.55 1.29,0.78 6.07,2.54 18.62,-0.07 34,-6.36 4.18,-1.71 8.53,-3.68 12.99,-5.91 3.59,2.32 7.2,4.54 10.82,6.66l0.1 0.06z"/>
   <path class="fil3" d="M145.93 9.73c8.13,0 14.72,6.59 14.72,14.72 0,8.13 -6.59,14.72 -14.72,14.72 -8.13,0 -14.72,-6.59 -14.72,-14.72 0,-8.13 6.59,-14.72 14.72,-14.72z"/>
   <path class="fil4" d="M145.93 14.55c-5.45,0 -9.89,4.44 -9.89,9.89 0,5.45 4.44,9.89 9.89,9.89 5.45,0 9.89,-4.44 9.89,-9.89 0,-5.45 -4.44,-9.89 -9.89,-9.89zm0 18.37c-4.68,0 -8.48,-3.8 -8.48,-8.48 0,-4.68 3.8,-8.48 8.48,-8.48 4.68,0 8.48,3.8 8.48,8.48 0,4.68 -3.8,8.48 -8.48,8.48zm5.65 -8.48c0,0.39 -0.32,0.71 -0.71,0.71l-3.73 0c-0.25,0.42 -0.7,0.71 -1.22,0.71 -0.78,0 -1.41,-0.63 -1.41,-1.41 0,-0.52 0.29,-0.97 0.71,-1.22l0 -4.44c0,-0.39 0.32,-0.71 0.71,-0.71 0.39,0 0.71,0.32 0.71,0.71l0 4.44c0.21,0.12 0.39,0.3 0.51,0.51l3.73 0c0.39,0 0.71,0.32 0.71,0.71z"/>
  </g>
 </g>
</svg>
