<?xml version="1.0" encoding="UTF-8"?>
<!DOCTYPE svg PUBLIC "-//W3C//DTD SVG 1.1//EN" "http://www.w3.org/Graphics/SVG/1.1/DTD/svg11.dtd">
<!-- Creator: CorelDRAW 2018 (64-Bit) -->
<svg xmlns="http://www.w3.org/2000/svg" xml:space="preserve" width="3.32883in" height="0.43611in" version="1.1" style="shape-rendering:geometricPrecision; text-rendering:geometricPrecision; image-rendering:optimizeQuality; fill-rule:evenodd; clip-rule:evenodd"
viewBox="0 0 4239.65 555.44"
 xmlns:xlink="http://www.w3.org/1999/xlink">
 <defs>
  <style type="text/css">
   <![CDATA[
    .fil0 {fill:#FEFEFE;fill-rule:nonzero}
   ]]>
  </style>
 </defs>
 <g id="Layer_x0020_1">
  <metadata id="CorelCorpID_0Corel-Layer"/>
  <path class="fil0" d="M409.54 551.19l127.08 0 -196.28 -515.82 -143.49 0 -196.84 515.82 126.94 0 32.83 -94.25 217.51 0 32.27 94.25zm-213.26 -198.97l72.31 -207.75 72.32 207.75 -144.63 0zm464.87 -116.47l94.81 0 0 -83.35 -94.81 0 0 -102.32 -109.39 0 0 102.32 -60.15 0 0 83.35 60.15 0 0 155.38c0,98.78 19.39,159.91 139.11,159.91 25.61,0 42.6,-2.13 65.09,-5.95l0 -100.9c-71.74,11.04 -94.81,0.71 -94.81,-53.07l0 -155.38zm321.66 -94.39c-94.81,0 -199.96,55.33 -199.96,207.03 0,151.84 105.14,207.03 199.96,207.03 94.81,0 199.82,-55.19 199.82,-207.03 0,-151.71 -105,-207.03 -199.82,-207.03zm0 323.49c-66.94,0 -96.65,-52.36 -96.65,-116.46 0,-64.11 29.72,-116.33 96.65,-116.33 66.79,0 95.95,52.22 95.95,116.33 0,64.1 -29.15,116.46 -95.95,116.46zm684.5 -323.49c-63.11,0 -106.98,53.77 -115.48,70.05 -19.39,-44.3 -59.43,-70.05 -116.04,-70.05 -55.33,0 -89.86,42.03 -102.03,64.81l0 -53.77 -109.39 0 0 392.7 109.39 0 0 -230.52c0,-55.33 28.59,-76.7 62.55,-76.7 33.4,0 59.58,19.24 59.58,76.7l0 230.52 109.39 0 0 -230.52c0,-55.33 29.15,-76.7 62.55,-76.7 33.39,0 59.57,19.24 59.57,76.7l0 230.52 109.96 0 0 -260.1c0,-88.31 -46.7,-143.63 -130.05,-143.63l0 0zm239.29 -28.02c33.54,0 56.61,-20.66 56.61,-56.75 0,-35.95 -23.07,-56.61 -56.61,-56.61 -33.39,0 -56.46,20.66 -56.46,56.61 0,36.08 23.07,56.75 56.46,56.75l0 0zm-54.62 431.9l109.39 0 0 -392.84 -109.39 0 0 392.84zm352.37 -80.38c-66.79,0 -96.65,-52.36 -96.65,-116.46 0,-64.11 29.86,-116.33 96.65,-116.33 53.49,0 83.21,33.82 92.41,80.94l99.62 0c-16.98,-122.27 -105.71,-171.65 -192.03,-171.65 -94.81,0 -200.52,55.33 -200.52,207.03 0,151.84 105.71,207.03 200.52,207.03 86.32,0 175.05,-48.54 192.03,-170.95l-99.62 0c-9.2,46.42 -38.92,80.38 -92.41,80.38l0 0zm850.35 -324.77l0 -104.72 -442.93 0 0 104.72 161.04 0 0 411.09 120.85 0 0 -411.09 161.04 0zm77.97 -26.75c33.54,0 56.61,-20.66 56.61,-56.75 0,-35.95 -23.07,-56.61 -56.61,-56.61 -33.39,0 -56.46,20.66 -56.46,56.61 0,36.08 23.07,56.75 56.46,56.75l0 0zm-54.62 431.9l109.39 0 0 -392.84 -109.39 0 0 392.84zm610.91 -403.88c-63.11,0 -106.98,53.77 -115.48,70.05 -19.39,-44.3 -59.43,-70.05 -116.04,-70.05 -55.33,0 -89.86,42.03 -102.03,64.81l0 -53.77 -109.39 0 0 392.7 109.39 0 0 -230.52c0,-55.33 28.59,-76.7 62.55,-76.7 33.4,0 59.58,19.24 59.58,76.7l0 230.52 109.39 0 0 -230.52c0,-55.33 29.15,-76.7 62.55,-76.7 33.39,0 59.57,19.24 59.57,76.7l0 230.52 109.96 0 0 -260.1c0,-88.31 -46.7,-143.63 -130.05,-143.63l0 0zm268.59 236.47l281.47 0c9.62,-169.39 -92.41,-236.47 -187.22,-236.47 -92.97,0 -194.44,59.01 -194.44,207.03 0,148.16 101.46,207.03 194.44,207.03 82.08,0 161.61,-39.06 182.27,-143.64l-97.22 0c-13.3,30.99 -37.64,53.07 -85.05,53.07 -55.9,0 -85.75,-36.79 -94.25,-86.89l0 -0.14zm94.25 -145.76c49.25,0 74.72,28.02 85.05,69.2l-175.05 0c12.17,-40.47 41.32,-69.2 90,-69.2l0 0z"/>
 </g>
</svg>
